# xmcd
#
# Track frame offsets: 
#        150
#        14101
#        28549
#        42779
#        56776
#        70087
#        85360
#        98927
#        112655
#        124274
#        137062
#        148404
#        171479
#        184089
#        195810
#        207026
#        218430
#        235104
#        247576
#        260803
#        273498
#        286131
#        300523
#        314718
#        327261
#
# Disc length: 4534 seconds
#
# Revision: 0
# Processed by: cddbd v1.5.1PL0 Copyright (c) Steve Scherf et al.
# Submitted via: ExactAudioCopy v0.95a2
#
DISCID=6e11b419
DTITLE=Lowell Fulson - The Complete Kent Recordings - Disk 2
DYEAR=2001
DGENRE=Blues
TTITLE0=Tramp
TTITLE1=Make A Little Love
TTITLE2=I'm Sinkin'
TTITLE3=Goin' Home
TTITLE4=Pico
TTITLE5=No Hard Feeling
TTITLE6=Evertday I Have The Blues
TTITLE7=I Cried
TTITLE8=The Thing
TTITLE9=I'm A Drifter
TTITLE10=Hobo Meeting
TTITLE11=I Wanna Spend Christmas With You Pt. 1&2
TTITLE12=Tomorrow
TTITLE13=Push Me
TTITLE14=Let's Go Get Stoned
TTITLE15=The Letter
TTITLE16=Blues Pain
TTITLE17=Mellow Together
TTITLE18=Funky Broadway
TTITLE19=Feel So Bad
TTITLE20=Going To Chicago
TTITLE21=What The Heck
TTITLE22=The Sweetest Thing
TTITLE23=Lovin' Touch
TTITLE24=Price For Love
EXTD=
EXTT0=
EXTT1=
EXTT2=
EXTT3=
EXTT4=
EXTT5=
EXTT6=
EXTT7=
EXTT8=
EXTT9=
EXTT10=
EXTT11=
EXTT12=
EXTT13=
EXTT14=
EXTT15=
EXTT16=
EXTT17=
EXTT18=
EXTT19=
EXTT20=
EXTT21=
EXTT22=
EXTT23=
EXTT24=
PLAYORDER=
